<svg id="ZAWARUDO" xmlns="http://www.w3.org/2000/svg" viewBox="0 0 239.43 152.56"><defs><style>.cls-1{fill:#fff;}</style></defs><title>KofiLogo</title><path class="cls-1" d="M7025.76,421.43c-7.71-40.75-48.47-45.82-48.47-45.82H6794.73c-6,0-6.77,8-6.77,8s-0.82,73.07-.22,117.94c1.64,24.18,25.8,26.66,25.8,26.66s82.47-.23,119.37-0.49c24.32-4.25,26.77-25.6,26.52-37.25,43.42,2.39,74-28.24,66.33-69h0Zm-110.36,35c-12.43,14.5-40,39.67-40,39.67a2.66,2.66,0,0,1-3.09.23,10.06,10.06,0,0,1-1.08-.9c-4.42-4.4-33.6-30.42-40.24-39.45-7.07-9.63-10.39-26.94-.91-37s30-10.83,43.53,4.06c0,0,15.61-17.78,34.6-9.61s18.28,30,7.21,43h0Zm61.58,4.77a77.78,77.78,0,0,1-16.78.28V404.83h17.66s19.66,5.5,19.66,26.32c0,19.08-9.83,26.61-20.54,30.08h0Z" transform="translate(-6787.52 -375.61)"/></svg>